<svg xmlns="http://www.w3.org/2000/svg" width="173.638" height="68.657" viewBox="0 0 173.638 68.657">
  <g id="Group_11998" data-name="Group 11998" transform="translate(-486.923 -237.405)">
    <path id="Path_33" data-name="Path 33" d="M510.815,265.682v8.54c0,5.989-7.964,5.582-7.964,0V261.87c0-1.906-1.974-3.334-3.948-3.334-2.042,0-4.016,1.428-4.016,3.334v10.651c0,6.671,15.928,9.869,15.928,19.807v5.361c0,5.515-6.058,8.373-11.98,8.373-5.99,0-11.912-2.79-11.912-8.373v-12.1c0-5.989,7.964-5.58,7.964,0v14.893a3.982,3.982,0,1,0,7.964,0V288.924c0-8.713-15.86-11.026-15.86-19.806v-3.436c0-5.853,5.99-8.78,11.912-8.78,5.99,0,11.912,2.927,11.912,8.78" fill="#ffe617"/>
    <path id="Path_34" data-name="Path 34" d="M570.859,265.82v35.613a3.99,3.99,0,0,1-4.016,4.357c-1.974,0-3.948-1.429-3.948-4.357V262.96a4.149,4.149,0,0,0-4.016-4.492c-1.974,0-3.948,1.5-3.948,4.492L555,298.848v2.585c0,2.928-1.974,4.357-3.948,4.357a3.99,3.99,0,0,1-4.016-4.357V262.96c0-2.995-2.042-4.492-4.016-4.492-2.042,0-4.016,1.5-4.016,4.492v38.473c0,2.928-1.974,4.357-3.948,4.357a3.99,3.99,0,0,1-4.016-4.357V265.82c0-5.718,5.513-8.918,11.436-8.918a15.535,15.535,0,0,1,8.508,2.111,16,16,0,0,1,8.645-2.111c5.854,0,11.231,3.131,11.231,8.918" fill="#ffe617"/>
    <path id="Path_35" data-name="Path 35" d="M600.516,265.682v8.54c0,5.989-7.964,5.582-7.964,0V261.87c0-1.906-1.974-3.334-3.948-3.334-2.042,0-4.016,1.428-4.016,3.334v10.651c0,6.671,15.928,9.869,15.928,19.807v5.361c0,5.515-6.058,8.373-11.98,8.373-5.99,0-11.912-2.79-11.912-8.373v-12.1c0-5.989,7.964-5.58,7.964,0v14.893a3.982,3.982,0,1,0,7.964,0V288.924c0-8.713-15.86-11.026-15.86-19.806v-3.436c0-5.853,5.99-8.78,11.912-8.78,5.99,0,11.912,2.927,11.912,8.78" fill="#ffe617"/>
    <path id="Path_36" data-name="Path 36" d="M614.612,262.347v39.086c0,2.928-1.974,4.356-3.948,4.356a3.989,3.989,0,0,1-4.016-4.356V262.347c0-2.927,1.974-4.355,3.948-4.355a3.989,3.989,0,0,1,4.016,4.355" fill="#ffe617"/>
    <path id="Path_37" data-name="Path 37" d="M660.561,265.82v35.613a3.99,3.99,0,0,1-4.016,4.357c-1.974,0-3.948-1.429-3.948-4.357V262.96a4.149,4.149,0,0,0-4.016-4.492c-1.974,0-3.948,1.5-3.948,4.492l.068,35.888v2.585c0,2.928-1.974,4.357-3.948,4.357a3.99,3.99,0,0,1-4.016-4.357V262.96c0-2.995-2.042-4.492-4.016-4.492-2.042,0-4.016,1.5-4.016,4.492v38.473c0,2.928-1.974,4.357-3.948,4.357a3.99,3.99,0,0,1-4.016-4.357V265.82c0-5.718,5.513-8.918,11.435-8.918a15.536,15.536,0,0,1,8.509,2.111,15.994,15.994,0,0,1,8.645-2.111c5.854,0,11.231,3.131,11.231,8.918" fill="#ffe617"/>
    <path id="Path_38" data-name="Path 38" d="M520.928,256.247c5.277,0,5.286-8.2,0-8.2s-5.286,8.2,0,8.2" fill="#ffe617"/>
    <path id="Path_39" data-name="Path 39" d="M610.63,256.247c5.277,0,5.286-8.2,0-8.2s-5.286,8.2,0,8.2" fill="#ffe617"/>
    <path id="Path_40" data-name="Path 40" d="M520.894,257.992c-1.974,0-3.948,1.429-3.948,4.355v39.086a3.99,3.99,0,0,0,4.016,4.357c1.974,0,3.948-1.429,3.948-4.357V262.347a3.989,3.989,0,0,0-4.016-4.355" fill="#ffe617"/>
    <path id="Path_41" data-name="Path 41" d="M549.428,259.781h0a.993.993,0,0,1-.984-.963,20.4,20.4,0,0,0-40.75,0,.989.989,0,1,1-1.978-.054,22.376,22.376,0,0,1,44.705,0,.987.987,0,0,1-.993,1.017" fill="#ffe617"/>
  </g>
</svg>
